<svg xmlns="http://www.w3.org/2000/svg" viewBox="0 0 920 330" width="920" height="330" font-family="-apple-system,BlinkMacSystemFont,'Segoe UI',Helvetica,Arial,sans-serif">
<rect x="0.5" y="0.5" width="919" height="329" rx="10" fill="#ffffff" stroke="#d0d7de"/>
<line x1="250.0" y1="32.0" x2="250.0" y2="274.0" stroke="#e4e8ec" stroke-width="1" />
<text x="250.0" y="288.0" font-size="11.5" fill="#59636e" text-anchor="middle" font-weight="400" >0</text>
<line x1="402.5" y1="32.0" x2="402.5" y2="274.0" stroke="#e4e8ec" stroke-width="1" />
<text x="402.5" y="288.0" font-size="11.5" fill="#59636e" text-anchor="middle" font-weight="400" >4</text>
<line x1="555.0" y1="32.0" x2="555.0" y2="274.0" stroke="#e4e8ec" stroke-width="1" />
<text x="555.0" y="288.0" font-size="11.5" fill="#59636e" text-anchor="middle" font-weight="400" >8</text>
<line x1="707.5" y1="32.0" x2="707.5" y2="274.0" stroke="#e4e8ec" stroke-width="1" />
<text x="707.5" y="288.0" font-size="11.5" fill="#59636e" text-anchor="middle" font-weight="400" >12</text>
<line x1="860.0" y1="32.0" x2="860.0" y2="274.0" stroke="#e4e8ec" stroke-width="1" />
<text x="860.0" y="288.0" font-size="11.5" fill="#59636e" text-anchor="middle" font-weight="400" >16</text>
<text x="555.0" y="316.0" font-size="12" fill="#59636e" text-anchor="middle" font-weight="400" >Median latency per call (ms), lower is better</text>
<text x="236.0" y="58.0" font-size="13.5" fill="#1f2328" text-anchor="end" font-weight="600" >YOLO, per call</text>
<text x="236.0" y="75.0" font-size="11.5" fill="#59636e" text-anchor="end" font-weight="400" >letterbox + NPU + post-process</text>
<rect x="250.0" y="44.0" width="498.3" height="34.0" rx="4" fill="#0072B2" />
<line x1="742.2" y1="61.0" x2="797.2" y2="61.0" stroke="#ffffff" stroke-width="2" />
<line x1="742.2" y1="54.0" x2="742.2" y2="68.0" stroke="#ffffff" stroke-width="2" />
<line x1="797.2" y1="54.0" x2="797.2" y2="68.0" stroke="#ffffff" stroke-width="2" />
<text x="758.3" y="66.0" font-size="13" fill="#1f2328" text-anchor="start" font-weight="700" >13.1 ms  (clips 12.9–14.4)</text>
<text x="236.0" y="120.0" font-size="13.5" fill="#1f2328" text-anchor="end" font-weight="600" >FEAR, per update in pipeline</text>
<text x="236.0" y="137.0" font-size="11.5" fill="#59636e" text-anchor="end" font-weight="400" >RGA crop + NPU + decode</text>
<rect x="250.0" y="106.0" width="303.6" height="34.0" rx="4" fill="#CC79A7" />
<line x1="544.7" y1="123.0" x2="596.1" y2="123.0" stroke="#ffffff" stroke-width="2" />
<line x1="544.7" y1="116.0" x2="544.7" y2="130.0" stroke="#ffffff" stroke-width="2" />
<line x1="596.1" y1="116.0" x2="596.1" y2="130.0" stroke="#ffffff" stroke-width="2" />
<text x="563.6" y="128.0" font-size="13" fill="#1f2328" text-anchor="start" font-weight="700" >8.0 ms  (clips 7.7–9.1)</text>
<text x="236.0" y="182.0" font-size="13.5" fill="#1f2328" text-anchor="end" font-weight="600" >FEAR search model, NPU only</text>
<text x="236.0" y="199.0" font-size="11.5" fill="#59636e" text-anchor="end" font-weight="400" >conversion benchmark</text>
<rect x="250.0" y="168.0" width="93.4" height="34.0" rx="4" fill="#CC79A7" fill-opacity="0.75"/>
<text x="353.4" y="190.0" font-size="13" fill="#1f2328" text-anchor="start" font-weight="700" >2.45 ms</text>
<text x="236.0" y="244.0" font-size="13.5" fill="#1f2328" text-anchor="end" font-weight="600" >FEAR template model, NPU only</text>
<text x="236.0" y="261.0" font-size="11.5" fill="#59636e" text-anchor="end" font-weight="400" >once per init, benchmark</text>
<rect x="250.0" y="230.0" width="24.4" height="34.0" rx="4" fill="#CC79A7" fill-opacity="0.75"/>
<text x="284.4" y="252.0" font-size="13" fill="#1f2328" text-anchor="start" font-weight="700" >0.64 ms</text>
</svg>
